<?xml version="1.0" encoding="UTF-8" standalone="no" ?>
<!DOCTYPE svg PUBLIC "-//W3C//DTD SVG 1.1//EN" "http://www.w3.org/Graphics/SVG/1.1/DTD/svg11.dtd">
<svg xmlns="http://www.w3.org/2000/svg" xmlns:xlink="http://www.w3.org/1999/xlink" version="1.1" width="1280" height="1024" viewBox="0 0 1280 1024" xml:space="preserve">
<desc>Created with Fabric.js 3.6.3</desc>
<defs>
</defs>
<g transform="matrix(1.9661538461538457 0 0 1.9661538461538457 640.2284069097888 512.182725527831)" id="background-logo"  >
<rect style="stroke: none; stroke-width: 0; stroke-dasharray: none; stroke-linecap: butt; stroke-dashoffset: 0; stroke-linejoin: miter; stroke-miterlimit: 4; fill: rgb(255,255,255); fill-opacity: 0; fill-rule: nonzero; opacity: 1;"  paint-order="stroke"  x="-325" y="-260" rx="0" ry="0" width="650" height="520" />
</g>
<g transform="matrix(1.9699349112426032 0 0 1.9699349112426032 740.1728833680206 517.9048175969726)" id="text-logo-path"  >
<path style="stroke: none; stroke-width: 0; stroke-dasharray: none; stroke-linecap: butt; stroke-dashoffset: 0; stroke-linejoin: miter; stroke-miterlimit: 4; fill: rgb(124,29,220); fill-rule: nonzero; opacity: 1;"  paint-order="stroke"  transform=" translate(-185.485, 19)" d="M 14.45 0 L 5.31 0 L 5.31 -46.51 Q 5.31 -47.92 6.1 -49.06 Q 6.89 -50.2 8.12 -50.77 L 8.12 -50.77 Q 9 -51.12 9.88 -51.12 L 9.88 -51.12 Q 10.34 -51.12 10.79 -51.05 L 10.79 -51.05 Q 12.16 -50.77 13.15 -49.75 L 13.15 -49.75 L 46.55 -14.91 L 46.55 -50.41 L 55.69 -50.41 L 55.69 -3.9 Q 55.69 -2.92 55.32 -2.07 Q 54.95 -1.23 54.33 -0.62 Q 53.72 0 52.88 0.35 Q 52.03 0.7 51.08 0.7 L 51.08 0.7 Q 50.24 0.7 49.38 0.39 Q 48.52 0.07 47.85 -0.63 L 47.85 -0.63 L 14.45 -35.51 L 14.45 0 Z M 74.57 0 L 65.43 0 L 65.43 -41.7 Q 65.43 -44.05 66.02 -45.91 Q 66.62 -47.78 67.62 -49.2 Q 68.63 -50.63 69.93 -51.63 Q 71.23 -52.63 72.65 -53.26 Q 74.07 -53.89 75.52 -54.19 Q 76.96 -54.49 78.26 -54.49 L 78.26 -54.49 L 98.93 -54.49 L 98.93 -45.35 L 78.33 -45.35 Q 76.46 -45.35 75.52 -44.42 Q 74.57 -43.49 74.57 -41.7 L 74.57 -41.7 L 74.57 0 Z M 98.93 -28.86 L 78.26 -28.86 L 78.26 -38 L 98.93 -38 L 98.93 -28.86 Z M 114.26 -28.86 L 102.38 -28.86 L 102.38 -38 L 114.26 -38 L 114.26 -50.41 L 123.5 -50.41 L 123.5 -38 L 139.46 -38 L 139.46 -28.86 L 123.5 -28.86 L 123.5 0 L 114.26 0 L 114.26 -28.86 Z M 145.27 -12.83 L 145.27 -12.83 L 145.27 -38 L 154.41 -38 L 154.41 -12.83 Q 154.41 -11.04 155.36 -10.09 Q 156.3 -9.14 158.17 -9.14 L 158.17 -9.14 L 174.59 -9.14 L 174.59 0 L 158.1 0 Q 156.13 0 153.9 -0.67 Q 151.66 -1.34 149.73 -2.87 Q 147.8 -4.39 146.53 -6.84 Q 145.27 -9.28 145.27 -12.83 Z M 158.1 16.49 L 158.1 7.35 L 174.59 7.35 Q 176.41 7.35 177.33 6.4 Q 178.24 5.45 178.24 3.66 L 178.24 3.66 L 178.24 -38 L 187.38 -38 L 187.38 3.66 Q 187.38 6.01 186.79 7.89 Q 186.19 9.77 185.2 11.2 Q 184.22 12.62 182.92 13.62 Q 181.62 14.63 180.19 15.26 Q 178.77 15.89 177.33 16.19 Q 175.89 16.49 174.59 16.49 L 174.59 16.49 L 158.1 16.49 Z M 206.12 0 L 196.98 0 L 196.98 -37.58 Q 196.98 -41.1 198.26 -43.56 Q 199.55 -46.02 201.46 -47.53 Q 203.38 -49.04 205.63 -49.73 Q 207.88 -50.41 209.78 -50.41 L 209.78 -50.41 L 230.45 -50.41 Q 233.54 -50.41 236 -49.62 Q 238.46 -48.83 240.35 -47.51 Q 242.23 -46.2 243.54 -44.47 Q 244.86 -42.75 245.72 -40.87 Q 246.59 -38.99 246.97 -37.07 Q 247.36 -35.16 247.36 -33.47 L 247.36 -33.47 L 247.36 -29.32 Q 247.36 -26.19 246.59 -23.73 Q 245.81 -21.27 244.49 -19.39 Q 243.18 -17.51 241.45 -16.17 Q 239.73 -14.84 237.85 -13.99 Q 235.97 -13.15 234.05 -12.76 Q 232.14 -12.38 230.45 -12.38 L 230.45 -12.38 L 209.78 -12.38 L 209.78 -21.52 L 230.45 -21.52 Q 232.21 -21.66 233.63 -22.24 Q 235.05 -22.82 236.07 -23.8 Q 237.09 -24.79 237.66 -26.17 Q 238.22 -27.56 238.22 -29.32 L 238.22 -29.32 L 238.22 -33.47 Q 238.04 -35.19 237.48 -36.63 Q 236.92 -38.07 235.95 -39.09 Q 234.98 -40.11 233.61 -40.69 Q 232.24 -41.27 230.45 -41.27 L 230.45 -41.27 L 209.85 -41.27 Q 208.02 -41.27 207.07 -40.32 Q 206.12 -39.38 206.12 -37.58 L 206.12 -37.58 L 206.12 0 Z M 253.93 -12.83 L 253.93 -12.83 L 253.93 -54.07 L 263.07 -54.07 L 263.07 -12.83 Q 263.07 -11.14 264.13 -10.14 Q 265.18 -9.14 266.77 -9.14 L 266.77 -9.14 L 270.84 -9.14 L 270.84 0 L 266.77 0 Q 264.8 0 262.56 -0.67 Q 260.33 -1.34 258.4 -2.87 Q 256.46 -4.39 255.2 -6.84 Q 253.93 -9.28 253.93 -12.83 Z M 274.29 -12.59 L 274.29 -12.59 Q 274.29 -14.48 274.96 -16.7 Q 275.63 -18.91 277.12 -20.79 Q 278.61 -22.68 281.02 -23.94 Q 283.43 -25.21 286.88 -25.21 L 286.88 -25.21 L 303.36 -25.21 L 303.36 -16.49 L 286.88 -16.49 Q 285.01 -16.49 283.99 -15.35 Q 282.97 -14.2 282.97 -12.52 L 282.97 -12.52 Q 282.97 -10.72 284.15 -9.72 Q 285.33 -8.72 286.95 -8.72 L 286.95 -8.72 L 303.36 -8.72 Q 305.23 -8.72 306.25 -9.84 Q 307.27 -10.97 307.27 -12.66 L 307.27 -12.66 L 307.27 -25.42 Q 307.27 -27.21 306.16 -28.27 Q 305.05 -29.32 303.36 -29.32 L 303.36 -29.32 L 283.29 -29.32 L 283.29 -38 L 303.36 -38 Q 305.26 -38 307.46 -37.34 Q 309.66 -36.67 311.54 -35.17 Q 313.42 -33.68 314.68 -31.27 Q 315.95 -28.86 315.95 -25.42 L 315.95 -25.42 L 315.95 -12.59 Q 315.95 -10.69 315.28 -8.49 Q 314.61 -6.29 313.12 -4.41 Q 311.63 -2.53 309.22 -1.27 Q 306.81 0 303.36 0 L 303.36 0 L 286.88 0 Q 284.98 0 282.78 -0.67 Q 280.58 -1.34 278.7 -2.83 Q 276.82 -4.32 275.55 -6.73 Q 274.29 -9.14 274.29 -12.59 Z M 323.54 -12.83 L 323.54 -12.83 L 323.54 -38 L 332.68 -38 L 332.68 -12.83 Q 332.68 -11.04 333.63 -10.09 Q 334.58 -9.14 336.45 -9.14 L 336.45 -9.14 L 352.86 -9.14 L 352.86 0 L 336.38 0 Q 334.41 0 332.17 -0.67 Q 329.94 -1.34 328.01 -2.87 Q 326.07 -4.39 324.81 -6.84 Q 323.54 -9.28 323.54 -12.83 Z M 336.38 16.49 L 336.38 7.35 L 352.86 7.35 Q 354.69 7.35 355.61 6.4 Q 356.52 5.45 356.52 3.66 L 356.52 3.66 L 356.52 -38 L 365.66 -38 L 365.66 3.66 Q 365.66 6.01 365.06 7.89 Q 364.46 9.77 363.48 11.2 Q 362.5 12.62 361.2 13.62 Q 359.89 14.63 358.47 15.26 Q 357.05 15.89 355.61 16.19 Q 354.16 16.49 352.86 16.49 L 352.86 16.49 L 336.38 16.49 Z" stroke-linecap="round" />
</g>
<g transform="matrix(0.575203865668107 0 0 0.575203865668107 274.460177373059 512.182725527831)" id="logo-logo"  >
<g style=""  paint-order="stroke"   >
		<g transform="matrix(0.29725957967869276 0 0 -0.29725957967869276 0 0)"  >
<linearGradient id="SVGID_18_4_186364" gradientUnits="userSpaceOnUse" gradientTransform="matrix(1 0 0 1 1249.3750124496037 840.0403061789382)"  x1="0" y1="0" x2="0" y2="920">
<stop offset="0%" style="stop-color:rgb(113,23,234);stop-opacity: 1"/>
<stop offset="100%" style="stop-color:rgb(234,96,96);stop-opacity: 1"/>
</linearGradient>
<path style="stroke: none; stroke-width: 1; stroke-dasharray: none; stroke-linecap: butt; stroke-dashoffset: 0; stroke-linejoin: miter; stroke-miterlimit: 4; fill: url(#SVGID_18_4_186364); fill-rule: nonzero; opacity: 1;"  paint-order="stroke"  transform=" translate(-1625.002506224802, -1300.0001530894692)" d="m 1724.1 1759.96 c -152.73 0 -276.54 -123.81 -276.54 -276.53 v -281.27 c 0.48 -99.44 -20.83 -110.8 -97.54 -142.05 c -127.85 -62.508 -122.16 -164.786 -48.3 -207.403 c 116.49 -58.242 236.76 98.016 236.76 191.303 v 439.42 c 0 102.35 83.27 185.62 185.61 185.62 c 102.36 0 185.62 -83.27 185.62 -185.62 v -121.22 c 0.47 -99.44 -20.83 -110.8 -97.54 -142.06 c -127.85 -62.5 -122.17 -164.78 -48.3 -207.4 c 115.71 -57.852 235.1 95.93 236.68 189.41 h 0.08 v 281.27 c 0 152.72 -123.81 276.53 -276.53 276.53" stroke-linecap="round" />
</g>
		<g transform="matrix(0.29725957967869276 0 0 -0.29725957967869276 32.56623982588491 -34.71095561176969)"  >
<linearGradient id="SVGID_18_4_186365" gradientUnits="userSpaceOnUse" gradientTransform="matrix(1 0 0 1 1669.73 1322.4)"  x1="0" y1="0" x2="0" y2="920">
<stop offset="0%" style="stop-color:rgb(113,23,234);stop-opacity: 1"/>
<stop offset="100%" style="stop-color:rgb(234,96,96);stop-opacity: 1"/>
</linearGradient>
<path style="stroke: none; stroke-width: 1; stroke-dasharray: none; stroke-linecap: butt; stroke-dashoffset: 0; stroke-linejoin: miter; stroke-miterlimit: 4; fill: url(#SVGID_18_4_186365); fill-rule: nonzero; opacity: 1;"  paint-order="stroke"  transform=" translate(-1737.915, -1416.77)" d="m 1780.12 1322.4 h -110.39 v 188.74 h 110.39 c 14.35 0 25.98 -11.63 25.98 -25.98 v -136.78 c 0 -14.35 -11.63 -25.98 -25.98 -25.98" stroke-linecap="round" />
</g>
</g>
</g>
</svg>